<svg width="70" height="70" viewBox="0 0 70 70" fill="none" xmlns="http://www.w3.org/2000/svg">
<g id="Group 3">
<circle id="Ellipse 3" cx="34.8636" cy="35.3809" r="32.0432" stroke="#121082" stroke-width="5"/>
<g id="&#240;&#159;&#166;&#134; icon &#34;Utensils&#34;">
<path id="Vector" d="M34.6609 16.3492C34.7234 16.7161 35.918 23.7277 35.918 26.4058C35.918 30.4894 33.7474 33.4018 30.5383 34.573L31.5456 53.1638C31.6002 54.2335 30.7491 55.1392 29.6716 55.1392H24.6745C23.6049 55.1392 22.746 54.2413 22.8006 53.1638L23.8079 34.573C20.591 33.4018 18.4282 30.4816 18.4282 26.4058C18.4282 23.7199 19.6228 16.7161 19.6852 16.3492C19.9351 14.7641 23.2223 14.7407 23.4253 16.435V27.4599C23.5268 27.7254 24.6043 27.7098 24.6745 27.4599C24.7839 25.4845 25.2914 16.5912 25.2992 16.3882C25.5568 14.7641 28.7893 14.7641 29.0392 16.3882C29.0548 16.599 29.5545 25.4845 29.6638 27.4599C29.7341 27.7098 30.8194 27.7254 30.9131 27.4599V16.435C31.1161 14.7485 34.4111 14.7641 34.6609 16.3492ZM43.9681 38.6565L42.7969 53.1091C42.7032 54.2022 43.5698 55.1392 44.663 55.1392H49.0354C50.0739 55.1392 50.9093 54.3037 50.9093 53.2653V17.0363C50.9093 16.0056 50.0739 15.1623 49.0354 15.1623C42.5938 15.1623 31.7486 29.0996 43.9681 38.6565Z" fill="#0F0D71"/>
</g>
</g>
</svg>
