<svg width="21" height="28" viewBox="0 0 21 28" fill="none" xmlns="http://www.w3.org/2000/svg">
<path id="Vector" d="M0 10.5C4.14964e-08 7.71523 1.10625 5.04451 3.07538 3.07538C5.04451 1.10625 7.71523 0 10.5 0C13.2848 0 15.9555 1.10625 17.9246 3.07538C19.8938 5.04451 21 7.71523 21 10.5C21 17.5 10.5 28 10.5 28C10.5 28 0 17.5 0 10.5ZM6.125 10.5C6.125 11.6603 6.58594 12.7731 7.40641 13.5936C8.22688 14.4141 9.33968 14.875 10.5 14.875C11.6603 14.875 12.7731 14.4141 13.5936 13.5936C14.4141 12.7731 14.875 11.6603 14.875 10.5C14.875 9.33968 14.4141 8.22688 13.5936 7.40641C12.7731 6.58594 11.6603 6.125 10.5 6.125C9.33968 6.125 8.22688 6.58594 7.40641 7.40641C6.58594 8.22688 6.125 9.33968 6.125 10.5Z" fill="#EFEFEF"/>
</svg>
