<svg width="70" height="70" viewBox="0 0 70 70" fill="none" xmlns="http://www.w3.org/2000/svg">
<g id="Group 5">
<g id="&#240;&#159;&#166;&#134; icon &#34;cogs&#34;">
<path id="Vector" d="M49.2949 29.4441L48.667 30.5391C48.4373 30.945 47.9472 31.1134 47.5107 30.9526C46.6071 30.6157 45.7801 30.1333 45.0526 29.5283C44.7004 29.2373 44.6085 28.7243 44.8382 28.3261L45.4661 27.2311C44.9378 26.6185 44.5243 25.9063 44.2486 25.1329H42.9851C42.5257 25.1329 42.1275 24.8036 42.0509 24.3442C41.8977 23.4253 41.8901 22.4604 42.0509 21.5032C42.1275 21.0438 42.5257 20.7069 42.9851 20.7069H44.2486C44.5243 19.9335 44.9378 19.2213 45.4661 18.6087L44.8382 17.5137C44.6085 17.1155 44.6927 16.6024 45.0526 16.3115C45.7801 15.7065 46.6148 15.2241 47.5107 14.8872C47.9472 14.7263 48.4373 14.8948 48.667 15.3007L49.2949 16.3957C50.0989 16.2502 50.9183 16.2502 51.7223 16.3957L52.3502 15.3007C52.58 14.8948 53.07 14.7263 53.5065 14.8872C54.4101 15.2241 55.2371 15.7065 55.9646 16.3115C56.3168 16.6024 56.4087 17.1155 56.179 17.5137L55.5511 18.6087C56.0795 19.2213 56.493 19.9335 56.7686 20.7069H58.0321C58.4916 20.7069 58.8898 21.0361 58.9663 21.4956C59.1195 22.4145 59.1271 23.3793 58.9663 24.3365C58.8898 24.796 58.4916 25.1329 58.0321 25.1329H56.7686C56.493 25.9063 56.0795 26.6185 55.5511 27.2311L56.179 28.3261C56.4087 28.7243 56.3245 29.2373 55.9646 29.5283C55.2371 30.1333 54.4025 30.6157 53.5065 30.9526C53.07 31.1134 52.58 30.945 52.3502 30.5391L51.7223 29.4441C50.9259 29.5896 50.0989 29.5896 49.2949 29.4441ZM48.4909 24.9415C51.439 27.2081 54.8007 23.8464 52.534 20.8983C49.5859 18.624 46.2242 21.9933 48.4909 24.9415ZM39.6618 36.7264L42.2423 38.0128C43.0157 38.457 43.3527 39.3988 43.0464 40.2412C42.3649 42.0943 41.0248 43.7942 39.7843 45.2798C39.2176 45.9613 38.2375 46.1298 37.464 45.6857L35.2357 44.3992C34.0105 45.4483 32.5862 46.2829 31.0317 46.8266V49.3995C31.0317 50.2878 30.3962 51.0536 29.5232 51.2067C27.6395 51.5283 25.6638 51.5436 23.7112 51.2067C22.8305 51.0536 22.1797 50.2955 22.1797 49.3995V46.8266C20.6252 46.2753 19.2009 45.4483 17.9757 44.3992L15.7474 45.678C14.9816 46.1221 13.9938 45.9537 13.4271 45.2721C12.1866 43.7866 10.8772 42.0866 10.1957 40.2412C9.88936 39.4065 10.2263 38.4646 10.9997 38.0128L13.5496 36.7264C13.251 35.1259 13.251 33.4796 13.5496 31.8715L10.9997 30.5774C10.2263 30.1333 9.8817 29.1914 10.1957 28.3567C10.8772 26.5036 12.1866 24.8036 13.4271 23.3181C13.9938 22.6366 14.9739 22.4681 15.7474 22.9122L17.9757 24.1987C19.2009 23.1496 20.6252 22.3149 22.1797 21.7713V19.1907C22.1797 18.3101 22.8076 17.5443 23.6805 17.3912C25.5643 17.0695 27.5476 17.0542 29.5002 17.3835C30.3809 17.5367 31.0317 18.2947 31.0317 19.1907V21.7636C32.5862 22.3149 34.0105 23.1419 35.2357 24.191L37.464 22.9046C38.2298 22.4604 39.2176 22.6289 39.7843 23.3104C41.0248 24.796 42.3266 26.4959 43.0081 28.3491C43.3144 29.1837 43.0157 30.1256 42.2423 30.5774L39.6618 31.8638C39.9604 33.4719 39.9604 35.1183 39.6618 36.7264ZM30.6565 38.3421C35.1898 32.4458 28.4588 25.7149 22.5625 30.2481C18.0293 36.1444 24.7602 42.8753 30.6565 38.3421ZM49.2949 52.3324L48.667 53.4274C48.4373 53.8332 47.9472 54.0017 47.5107 53.8409C46.6071 53.504 45.7801 53.0215 45.0526 52.4166C44.7004 52.1256 44.6085 51.6126 44.8382 51.2144L45.4661 50.1193C44.9378 49.5067 44.5243 48.7946 44.2486 48.0212H42.9851C42.5257 48.0212 42.1275 47.6919 42.0509 47.2325C41.8977 46.3136 41.8901 45.3487 42.0509 44.3915C42.1275 43.9321 42.5257 43.5951 42.9851 43.5951H44.2486C44.5243 42.8217 44.9378 42.1096 45.4661 41.497L44.8382 40.402C44.6085 40.0038 44.6927 39.4907 45.0526 39.1997C45.7801 38.5948 46.6148 38.1124 47.5107 37.7754C47.9472 37.6146 48.4373 37.7831 48.667 38.189L49.2949 39.284C50.0989 39.1385 50.9183 39.1385 51.7223 39.284L52.3502 38.189C52.58 37.7831 53.07 37.6146 53.5065 37.7754C54.4101 38.1124 55.2371 38.5948 55.9646 39.1997C56.3168 39.4907 56.4087 40.0038 56.179 40.402L55.5511 41.497C56.0795 42.1096 56.493 42.8217 56.7686 43.5951H58.0321C58.4916 43.5951 58.8898 43.9244 58.9663 44.3839C59.1195 45.3028 59.1271 46.2676 58.9663 47.2248C58.8898 47.6843 58.4916 48.0212 58.0321 48.0212H56.7686C56.493 48.7946 56.0795 49.5067 55.5511 50.1193L56.179 51.2144C56.4087 51.6126 56.3245 52.1256 55.9646 52.4166C55.2371 53.0215 54.4025 53.504 53.5065 53.8409C53.07 54.0017 52.58 53.8332 52.3502 53.4274L51.7223 52.3324C50.9259 52.4779 50.0989 52.4779 49.2949 52.3324ZM48.4909 47.8221C51.439 50.0887 54.8007 46.7271 52.534 43.7789C49.5859 41.5123 46.2242 44.874 48.4909 47.8221Z" fill="#0F0D71"/>
</g>
<circle id="Ellipse 1" cx="34.9515" cy="35.0456" r="32.0432" stroke="#121082" stroke-width="5"/>
</g>
</svg>
