<svg width="70" height="70" viewBox="0 0 70 70" fill="none" xmlns="http://www.w3.org/2000/svg">
<g id="Group 2">
<circle id="Ellipse 5" cx="35.1365" cy="35.3809" r="32.0432" stroke="#121082" stroke-width="5"/>
<g id="&#240;&#159;&#166;&#134; icon &#34;Warehouse&#34;">
<path id="Vector" d="M47.4042 38.9544H24.3836C24.1081 38.9544 23.8826 39.1798 23.8826 39.4554L23.8764 42.4613C23.8764 42.7369 24.1018 42.9623 24.3773 42.9623H47.4042C47.6798 42.9623 47.9052 42.7369 47.9052 42.4613V39.4554C47.9052 39.1798 47.6798 38.9544 47.4042 38.9544ZM47.4042 44.9663H24.3648C24.0893 44.9663 23.8638 45.1917 23.8638 45.4673L23.8576 48.4732C23.8576 48.7488 24.083 48.9742 24.3586 48.9742H47.4042C47.6798 48.9742 47.9052 48.7488 47.9052 48.4732V45.4673C47.9052 45.1917 47.6798 44.9663 47.4042 44.9663ZM47.4042 32.9424H24.3961C24.1206 32.9424 23.8951 33.1679 23.8951 33.4434L23.8889 36.4494C23.8889 36.7249 24.1143 36.9504 24.3899 36.9504H47.4042C47.6798 36.9504 47.9052 36.7249 47.9052 36.4494V33.4434C47.9052 33.1679 47.6798 32.9424 47.4042 32.9424ZM54.0737 24.2377L37.0337 17.1424C36.6674 16.9904 36.2748 16.9122 35.8783 16.9122C35.4817 16.9122 35.0891 16.9904 34.7229 17.1424L17.6891 24.2377C16.5744 24.7074 15.8417 25.797 15.8417 27.0119V48.4732C15.8417 48.7488 16.0671 48.9742 16.3427 48.9742H21.3526C21.6281 48.9742 21.8536 48.7488 21.8536 48.4732V32.9424C21.8536 31.8403 22.7679 30.9385 23.8951 30.9385H47.8677C48.9949 30.9385 49.9092 31.8403 49.9092 32.9424V48.4732C49.9092 48.7488 50.1347 48.9742 50.4102 48.9742H55.4201C55.6957 48.9742 55.9211 48.7488 55.9211 48.4732V27.0119C55.9211 25.797 55.1884 24.7074 54.0737 24.2377Z" fill="#0F0D71"/>
</g>
</g>
</svg>
