<svg width="69" height="70" viewBox="0 0 69 70" fill="none" xmlns="http://www.w3.org/2000/svg">
<g id="Group 4">
<path id="Ellipse 2" d="M66.2208 35.0456C66.2208 52.7709 52.0305 67.0888 34.5888 67.0888C17.1471 67.0888 2.95679 52.7709 2.95679 35.0456C2.95679 17.3203 17.1471 3.00232 34.5888 3.00232C52.0305 3.00232 66.2208 17.3203 66.2208 35.0456Z" stroke="#121082" stroke-width="5"/>
<g id="&#240;&#159;&#166;&#134; icon &#34;Alternate Map Marked&#34;">
<path id="Vector" d="M35.1237 14.1821C29.7751 14.1821 25.4395 18.5177 25.4395 23.8663C25.4395 28.1904 31.7688 36.0715 34.1937 38.9322C34.6848 39.5117 35.5633 39.5117 36.0537 38.9322C38.4786 36.0715 44.8079 28.1904 44.8079 23.8663C44.8079 18.5177 40.4723 14.1821 35.1237 14.1821ZM35.1237 27.0944C33.3406 27.0944 31.8956 25.6495 31.8956 23.8663C31.8956 22.0832 33.3406 20.6383 35.1237 20.6383C36.9068 20.6383 38.3518 22.0832 38.3518 23.8663C38.3518 25.6495 36.9068 27.0944 35.1237 27.0944ZM14.5347 30.7798C14.0783 30.9623 13.6871 31.2774 13.4115 31.6844C13.1358 32.0915 12.9885 32.5717 12.9883 33.0633V52.3026C12.9883 53.1726 13.8668 53.7675 14.6746 53.4447L25.2858 48.6149V30.7006C24.6063 29.4724 24.0506 28.2765 23.6525 27.1328L14.5347 30.7798ZM35.1237 41.8259C34.0423 41.8259 33.0193 41.351 32.3176 40.5224C30.8065 38.7393 29.1994 36.7087 27.7452 34.6258V48.6141L42.5021 53.5331V34.6266C41.048 36.7087 39.4416 38.7401 37.9298 40.5232C37.2281 41.351 36.2051 41.8259 35.1237 41.8259ZM55.5727 26.5687L44.9616 31.3985V53.5338L55.7126 49.2336C56.1691 49.0511 56.5604 48.7361 56.836 48.329C57.1117 47.922 57.259 47.4417 57.259 46.9501V27.7108C57.259 26.8408 56.3805 26.2459 55.5727 26.5687Z" fill="#0F0D71"/>
</g>
</g>
</svg>
