<svg width="69" height="70" viewBox="0 0 69 70" fill="none" xmlns="http://www.w3.org/2000/svg">
<g id="Group 1">
<path id="Ellipse 4" d="M66.2694 35.0456C66.2694 52.7709 52.0791 67.0888 34.6374 67.0888C17.1957 67.0888 3.00537 52.7709 3.00537 35.0456C3.00537 17.3203 17.1957 3.00232 34.6374 3.00232C52.0791 3.00232 66.2694 17.3203 66.2694 35.0456Z" stroke="#121082" stroke-width="5"/>
<g id="&#240;&#159;&#166;&#134; icon &#34;bed&#34;">
<path id="Vector" d="M51.7039 31.8846C50.744 31.4632 49.7071 31.2461 48.6588 31.247H21.253C20.2048 31.246 19.1679 31.4628 18.2079 31.8836C16.8511 32.477 15.6966 33.4527 14.8854 34.6916C14.0742 35.9305 13.6416 37.3789 13.6403 38.8597V49.5176C13.6403 49.9214 13.8007 50.3086 14.0862 50.5942C14.3717 50.8797 14.759 51.0401 15.1628 51.0401C15.5666 51.0401 15.9539 50.8797 16.2394 50.5942C16.5249 50.3086 16.6853 49.9214 16.6853 49.5176V48.7563C16.6878 48.5551 16.7688 48.3629 16.911 48.2207C17.0533 48.0785 17.2455 47.9975 17.4466 47.995H52.4652C52.6663 47.9975 52.8585 48.0785 53.0007 48.2207C53.143 48.3629 53.224 48.5551 53.2264 48.7563V49.5176C53.2264 49.9214 53.3868 50.3086 53.6724 50.5942C53.9579 50.8797 54.3452 51.0401 54.749 51.0401C55.1528 51.0401 55.54 50.8797 55.8256 50.5942C56.1111 50.3086 56.2715 49.9214 56.2715 49.5176V38.8597C56.27 37.3791 55.8373 35.9309 55.0261 34.6922C54.2149 33.4534 53.0605 32.4778 51.7039 31.8846Z" fill="#0F0D71"/>
<path id="Vector_2" d="M46.375 17.5441H23.5368C22.1235 17.5441 20.7681 18.1056 19.7687 19.1049C18.7693 20.1043 18.2079 21.4597 18.2079 22.873V29.7245C18.2079 29.7835 18.2217 29.8416 18.2481 29.8944C18.2744 29.9472 18.3127 29.9931 18.3599 30.0285C18.407 30.0639 18.4618 30.0879 18.5198 30.0986C18.5778 30.1092 18.6375 30.1063 18.6941 30.0899C19.5253 29.8468 20.387 29.7237 21.253 29.7245H21.6555C21.7495 29.7251 21.8403 29.6909 21.9106 29.6285C21.9808 29.5662 22.0256 29.48 22.0361 29.3867C22.1192 28.6427 22.4734 27.9554 23.031 27.456C23.5887 26.9566 24.3108 26.6802 25.0593 26.6794H30.3882C31.1373 26.6795 31.8601 26.9556 32.4184 27.4551C32.9766 27.9545 33.3312 28.6422 33.4143 29.3867C33.4249 29.48 33.4696 29.5662 33.5399 29.6285C33.6101 29.6909 33.701 29.7251 33.7949 29.7245H36.1225C36.2165 29.7251 36.3073 29.6909 36.3776 29.6285C36.4479 29.5662 36.4926 29.48 36.5032 29.3867C36.5862 28.6432 36.9399 27.9563 37.497 27.457C38.054 26.9576 38.7754 26.6809 39.5235 26.6794H44.8524C45.6015 26.6795 46.3243 26.9556 46.8825 27.4551C47.4408 27.9545 47.7954 28.6422 47.8785 29.3867C47.889 29.48 47.9338 29.5662 48.004 29.6285C48.0743 29.6909 48.1652 29.7251 48.2591 29.7245H48.6588C49.5248 29.7241 50.3865 29.8474 51.2176 30.0908C51.2744 30.1072 51.3341 30.1102 51.3922 30.0995C51.4503 30.0888 51.5051 30.0647 51.5523 30.0292C51.5995 29.9936 51.6377 29.9476 51.664 29.8947C51.6903 29.8418 51.704 29.7836 51.7039 29.7245V22.873C51.7039 21.4597 51.1424 20.1043 50.1431 19.1049C49.1437 18.1056 47.7883 17.5441 46.375 17.5441Z" fill="#0F0D71"/>
</g>
</g>
</svg>
